<svg id="visual" viewBox="0 0 900 600" width="900" height="600" xmlns="http://www.w3.org/2000/svg" xmlns:xlink="http://www.w3.org/1999/xlink" version="1.1"><rect x="0" y="0" width="900" height="600" fill="#ffffff"></rect><path d="M824 600L820 590C816 580 808 560 797.7 540C787.3 520 774.7 500 774.8 480C775 460 788 440 790.5 420C793 400 785 380 783 360C781 340 785 320 792.7 300C800.3 280 811.7 260 810.5 240C809.3 220 795.7 200 792.7 180C789.7 160 797.3 140 794.8 120C792.3 100 779.7 80 780.2 60C780.7 40 794.3 20 801.2 10L808 0L900 0L900 10C900 20 900 40 900 60C900 80 900 100 900 120C900 140 900 160 900 180C900 200 900 220 900 240C900 260 900 280 900 300C900 320 900 340 900 360C900 380 900 400 900 420C900 440 900 460 900 480C900 500 900 520 900 540C900 560 900 580 900 590L900 600Z" fill="#a1fcf8"></path><path d="M807 600L808.3 590C809.7 580 812.3 560 807.8 540C803.3 520 791.7 500 794.7 480C797.7 460 815.3 440 815 420C814.7 400 796.3 380 795.5 360C794.7 340 811.3 320 813.8 300C816.3 280 804.7 260 798.7 240C792.7 220 792.3 200 798.7 180C805 160 818 140 820.2 120C822.3 100 813.7 80 808.7 60C803.7 40 802.3 20 801.7 10L801 0L900 0L900 10C900 20 900 40 900 60C900 80 900 100 900 120C900 140 900 160 900 180C900 200 900 220 900 240C900 260 900 280 900 300C900 320 900 340 900 360C900 380 900 400 900 420C900 440 900 460 900 480C900 500 900 520 900 540C900 560 900 580 900 590L900 600Z" fill="#5ce2fa"></path><path d="M820 600L816.7 590C813.3 580 806.7 560 810 540C813.3 520 826.7 500 832 480C837.3 460 834.7 440 827.5 420C820.3 400 808.7 380 807.3 360C806 340 815 320 820.5 300C826 280 828 260 824.2 240C820.3 220 810.7 200 810.3 180C810 160 819 140 824.5 120C830 100 832 80 829 60C826 40 818 20 814 10L810 0L900 0L900 10C900 20 900 40 900 60C900 80 900 100 900 120C900 140 900 160 900 180C900 200 900 220 900 240C900 260 900 280 900 300C900 320 900 340 900 360C900 380 900 400 900 420C900 440 900 460 900 480C900 500 900 520 900 540C900 560 900 580 900 590L900 600Z" fill="#00c5ff"></path><path d="M852 600L852.5 590C853 580 854 560 850.2 540C846.3 520 837.7 500 831 480C824.3 460 819.7 440 820.8 420C822 400 829 380 835.7 360C842.3 340 848.7 320 849.5 300C850.3 280 845.7 260 841.3 240C837 220 833 200 830.3 180C827.7 160 826.3 140 825.5 120C824.7 100 824.3 80 828.3 60C832.3 40 840.7 20 844.8 10L849 0L900 0L900 10C900 20 900 40 900 60C900 80 900 100 900 120C900 140 900 160 900 180C900 200 900 220 900 240C900 260 900 280 900 300C900 320 900 340 900 360C900 380 900 400 900 420C900 440 900 460 900 480C900 500 900 520 900 540C900 560 900 580 900 590L900 600Z" fill="#00a4fc"></path><path d="M858 600L856.5 590C855 580 852 560 852.2 540C852.3 520 855.7 500 857.3 480C859 460 859 440 855.3 420C851.7 400 844.3 380 841.7 360C839 340 841 320 842.3 300C843.7 280 844.3 260 847.3 240C850.3 220 855.7 200 855.2 180C854.7 160 848.3 140 843.5 120C838.7 100 835.3 80 835.8 60C836.3 40 840.7 20 842.8 10L845 0L900 0L900 10C900 20 900 40 900 60C900 80 900 100 900 120C900 140 900 160 900 180C900 200 900 220 900 240C900 260 900 280 900 300C900 320 900 340 900 360C900 380 900 400 900 420C900 440 900 460 900 480C900 500 900 520 900 540C900 560 900 580 900 590L900 600Z" fill="#0080f3"></path><path d="M853 600L853.5 590C854 580 855 560 857 540C859 520 862 500 862.7 480C863.3 460 861.7 440 860.3 420C859 400 858 380 858.2 360C858.3 340 859.7 320 860.7 300C861.7 280 862.3 260 861.3 240C860.3 220 857.7 200 858.2 180C858.7 160 862.3 140 861.7 120C861 100 856 80 853.8 60C851.7 40 852.3 20 852.7 10L853 0L900 0L900 10C900 20 900 40 900 60C900 80 900 100 900 120C900 140 900 160 900 180C900 200 900 220 900 240C900 260 900 280 900 300C900 320 900 340 900 360C900 380 900 400 900 420C900 440 900 460 900 480C900 500 900 520 900 540C900 560 900 580 900 590L900 600Z" fill="#0058e3"></path><path d="M870 600L872.5 590C875 580 880 560 881.2 540C882.3 520 879.7 500 877.2 480C874.7 460 872.3 440 872.3 420C872.3 400 874.7 380 875.5 360C876.3 340 875.7 320 874.2 300C872.7 280 870.3 260 872.3 240C874.3 220 880.7 200 882.8 180C885 160 883 140 881 120C879 100 877 80 876.5 60C876 40 877 20 877.5 10L878 0L900 0L900 10C900 20 900 40 900 60C900 80 900 100 900 120C900 140 900 160 900 180C900 200 900 220 900 240C900 260 900 280 900 300C900 320 900 340 900 360C900 380 900 400 900 420C900 440 900 460 900 480C900 500 900 520 900 540C900 560 900 580 900 590L900 600Z" fill="#2624c7"></path></svg>